<?xml version="1.0" encoding="UTF-8" standalone="no"?>
<svg
   viewBox="0 0 64 64"
   fill="#ffffff"
   version="1.1"
   id="svg28"
   width="64"
   height="64"
   xmlns:xlink="http://www.w3.org/1999/xlink"
   xmlns="http://www.w3.org/2000/svg"
   xmlns:svg="http://www.w3.org/2000/svg">
  <g
     id="g1223">
    <circle
       style="fill:url(#linearGradient6313);fill-opacity:1;stroke:none;stroke-width:3.19534;stroke-linecap:round;stroke-linejoin:round"
       id="path1769"
       cx="32"
       cy="-32"
       r="32"
       transform="rotate(90)" />
    <path
       id="path2"
       style="fill:#ffffff;stroke-width:2"
       d="m 19.999995,10 c -1.10457,0 -2.000001,0.89543 -2,2 l 0.09766,2 c 0.292,3.672 1.486672,11.5 6.388673,16 -5.170001,5.022 -6.221641,15.468 -6.431641,20 l -0.05469,2 c -2e-6,1.10457 0.89543,2 2,2 h 24 c 1.10457,0 2,-0.89543 2,-2 l -0.05273,-2 c -0.21,-4.528 -1.263593,-14.974 -6.433594,-20 4.902001,-4.504 6.096672,-12.332 6.388672,-16 l 0.09766,-2 c 0,-1.10457 -0.89543,-2 -2,-2 z m 2.117187,4 H 41.88476 c -0.338,3.688 -1.646609,11.43395 -6.724609,14.25195 -1.402156,0.77965 -1.361752,2.80995 0.07031,3.5332 4.874,2.456 6.400938,12.62285 6.710938,18.21485 H 22.060542 c 0.301999,-5.6 1.836937,-15.75885 6.710937,-18.21485 1.431616,-0.72405 1.470897,-2.75432 0.06836,-3.5332 C 23.761839,25.43395 22.455183,17.688 22.117182,14 Z m 9.882813,20 c 0,0 -6,4.79921 -6,7.19921 V 48 h 12 v -6.80079 c 0,-2.4 -6,-7.19921 -6,-7.19921 z" />
  </g>
  <defs
     id="defs19">
    <linearGradient
       id="A"
       x2="0.5"
       x1="0.5"
       y2="1"
       y1="0">
      <stop
         stop-color="#111d2e"
         offset="0%"
         id="stop4" />
      <stop
         stop-color="#051839"
         offset="21.2%"
         id="stop6" />
      <stop
         stop-color="#0a1b48"
         offset="40.7%"
         id="stop8" />
      <stop
         stop-color="#132e62"
         offset="58.1%"
         id="stop10" />
      <stop
         stop-color="#144b7e"
         offset="73.8%"
         id="stop12" />
      <stop
         stop-color="#136497"
         offset="87.3%"
         id="stop14" />
      <stop
         stop-color="#1387b8"
         offset="100%"
         id="stop16" />
    </linearGradient>
    <linearGradient
       xlink:href="#A"
       id="linearGradient6313"
       x1="-120.16513"
       y1="70.304863"
       x2="-40.675426"
       y2="70.304863"
       gradientUnits="userSpaceOnUse"
       gradientTransform="matrix(0.8591791,0,0,0.47534639,101.09543,-65.419163)" />
    <linearGradient
       xlink:href="#A"
       id="linearGradient10204"
       x1="32.01076"
       y1="0"
       x2="32.01076"
       y2="63.965491"
       gradientTransform="scale(0.99946079,1.0005395)"
       gradientUnits="userSpaceOnUse" />
  </defs>
  <symbol
     id="B"
     transform="translate(-0.5,-0.5)">
    <g
       id="g25">
      <path
         d="M 1.305,41.202 C 5.259,54.386 17.488,64 31.959,64 c 17.673,0 32,-14.327 32,-32 0,-17.673 -14.327,-32 -32,-32 C 15.001,0 1.124,13.193 0.028,29.874 c 2.074,3.477 2.879,5.628 1.275,11.328 z"
         fill="url(#A)"
         id="path21"
         style="fill:url(#linearGradient10204)" />
      <path
         d="m 30.31,23.985 0.003,0.158 -7.83,11.375 c -1.268,-0.058 -2.54,0.165 -3.748,0.662 a 8.14,8.14 0 0 0 -1.498,0.8 L 0.042,29.893 c 0,0 -0.398,6.546 1.26,11.424 l 12.156,5.016 c 0.6,2.728 2.48,5.12 5.242,6.27 a 8.88,8.88 0 0 0 11.603,-4.782 8.89,8.89 0 0 0 0.684,-3.656 l 11.193,-8.005 0.275,0.005 c 6.705,0 12.155,-5.466 12.155,-12.18 0,-6.714 -5.44,-12.16 -12.155,-12.174 -6.702,0 -12.155,5.46 -12.155,12.174 z m -1.88,23.05 c -1.454,3.5 -5.466,5.147 -8.953,3.694 a 6.84,6.84 0 0 1 -3.524,-3.362 l 3.957,1.64 a 5.04,5.04 0 0 0 6.591,-2.719 5.05,5.05 0 0 0 -2.715,-6.601 l -4.1,-1.695 c 1.578,-0.6 3.372,-0.62 5.05,0.077 1.7,0.703 3,2.027 3.696,3.72 0.696,1.693 0.692,3.56 -0.01,5.246 M 42.466,32.1 a 8.12,8.12 0 0 1 -8.098,-8.113 8.12,8.12 0 0 1 8.098,-8.111 8.12,8.12 0 0 1 8.1,8.111 8.12,8.12 0 0 1 -8.1,8.113 m -6.068,-8.126 a 6.09,6.09 0 0 1 6.08,-6.095 c 3.355,0 6.084,2.73 6.084,6.095 a 6.09,6.09 0 0 1 -6.084,6.093 6.09,6.09 0 0 1 -6.081,-6.093 z"
         id="path23" />
    </g>
  </symbol>
</svg>
